<?xml version="1.0" encoding="utf-8"?>
<!-- Generator: Adobe Illustrator 22.0.0, SVG Export Plug-In . SVG Version: 6.00 Build 0)  -->
<svg version="1.1" id="Слой_1" xmlns="http://www.w3.org/2000/svg" xmlns:xlink="http://www.w3.org/1999/xlink" x="0px" y="0px"
	 viewBox="0 0 130 100" style="enable-background:new 0 0 130 100;" xml:space="preserve">
<style type="text/css">
	.st0{clip-path:url(#SVGID_2_);fill:url(#SVGID_3_);}
	.st1{fill:#565252;}
	.st2{fill-rule:evenodd;clip-rule:evenodd;fill:#565252;}
	.st3{fill-rule:evenodd;clip-rule:evenodd;fill:#949292;}
</style>
<g>
	<g>
		<g>
			<g>
				<g>
					<defs>
						<path id="SVGID_1_" d="M34.096,57.676l3.075-0.003l2.941-9.017C36.81,50.415,34.146,53.541,34.096,57.676 M21.525,57.68h8.992
							c0.974-4.71,5.823-8.681,10.017-10.32l0.302-0.933C33.491,47.837,25.348,51.171,21.525,57.68 M14.845,50.142l-0.186,0.531
							l-1.369,3.989l-0.336,0.945c-0.405,0.8,0.26,2.074,1.31,2.074h2.689c4.428-6.901,15.722-11.11,24.193-12.21l0.303-0.922
							C32.685,44.873,21.726,47.173,14.845,50.142 M17.332,43.108c-0.496,1.405-0.975,2.747-1.445,4.098
							c6.361-2.136,17.428-3.455,25.848-3.54l0.614-1.891l-21.546-0.004c-0.286,0-0.555-0.006-0.824-0.006
							C18.735,41.768,17.769,41.878,17.332,43.108"/>
					</defs>
					<clipPath id="SVGID_2_">
						<use xlink:href="#SVGID_1_"  style="overflow:visible;"/>
					</clipPath>
					
						<linearGradient id="SVGID_3_" gradientUnits="userSpaceOnUse" x1="-546.6639" y1="492.507" x2="-545.718" y2="492.507" gradientTransform="matrix(26.3643 -17.2555 -17.2555 -26.3643 22926.0449 3609.3984)">
						<stop  offset="0" style="stop-color:#C64F1F"/>
						<stop  offset="0.6016" style="stop-color:#D78C21"/>
						<stop  offset="1" style="stop-color:#E5B52B"/>
					</linearGradient>
					<polygon class="st0" points="5.256,46.539 33.415,28.109 49.65,52.902 21.483,71.335 					"/>
				</g>
				<polygon class="st1" points="65.684,41.756 65.079,43.57 68.474,43.577 65.448,52.759 68.011,52.759 71.037,43.575 
					74.28,43.577 74.885,41.751 				"/>
				<g>
					<path class="st2" d="M93.103,50.932l3.034-9.193l-6.571,0.004c-1.261,0-1.958,0.594-2.311,1.781l-2.429,7.41l-1.462,0.002
						l-0.572,1.817l11.176-0.004l0.597-1.819L93.103,50.932z M90.54,50.932l2.437-7.364L90.8,43.57
						c-0.942-0.034-1.109,0.243-1.395,1.126l-2.042,6.237L90.54,50.932z"/>
					<path class="st2" d="M50.919,52.768L54.55,41.76h-6.521c-1.186-0.013-1.882,0.439-2.294,1.553l-3.118,9.458l2.563,0.004
						l1.58-4.849l3.193,0.002l-1.597,4.841H50.919z M47.239,46.482L47.7,45.07c0.379-1.12,0.37-1.517,1.572-1.487l2.109-0.004
						l-0.957,2.901L47.239,46.482z"/>
					<path class="st2" d="M52.869,52.766l6.588-0.003c0.941,0,1.849-0.26,2.302-1.525l0.815-2.487c0.43-1.233-0.1-1.435-0.445-1.592
						c0.613-0.174,1.151-0.597,1.445-1.467l0.42-1.31c0.412-1.446-0.361-2.7-1.984-2.626l-5.52,0.002L52.869,52.766z M57.49,46.461
						l2.404,0.004c0.47,0.03,0.882-0.141,1.075-0.697c0.135-0.406,0.269-0.834,0.404-1.244c0.159-0.592-0.026-0.958-0.631-0.943
						h-2.311L57.49,46.461z M57.02,47.907l2.462-0.004c0.462-0.019,0.638,0.456,0.488,0.926l-0.312,0.943
						c-0.218,0.597-0.311,1.183-1.218,1.183l-2.412,0.002L57.02,47.907z"/>
					<polygon class="st1" points="44.239,55.621 43.038,55.621 43.038,57.68 42.726,57.68 42.726,55.343 44.239,55.343 					"/>
					<path class="st1" d="M45.399,55.303c0.319,0,0.588,0.112,0.799,0.333c0.21,0.22,0.31,0.51,0.31,0.875
						c0,0.361-0.1,0.656-0.31,0.874c-0.211,0.223-0.471,0.332-0.799,0.334c-0.328,0-0.597-0.111-0.806-0.332
						c-0.211-0.22-0.32-0.515-0.32-0.876c0-0.363,0.109-0.655,0.32-0.875C44.793,55.415,45.071,55.303,45.399,55.303 M45.39,57.453
						c0.235,0,0.428-0.082,0.579-0.248c0.143-0.166,0.219-0.397,0.219-0.694c0-0.298-0.076-0.529-0.219-0.695
						c-0.152-0.166-0.344-0.248-0.571-0.248c-0.235,0-0.429,0.082-0.58,0.248c-0.151,0.168-0.226,0.397-0.226,0.695
						c0,0.297,0.076,0.528,0.226,0.694C44.97,57.373,45.163,57.455,45.39,57.453"/>
					<path class="st1" d="M47.894,57.717c-0.328,0-0.588-0.109-0.79-0.326c-0.193-0.216-0.294-0.51-0.294-0.88
						c0-0.372,0.101-0.666,0.294-0.882c0.202-0.219,0.462-0.326,0.79-0.326c0.252,0,0.471,0.068,0.647,0.204
						c0.185,0.137,0.286,0.318,0.303,0.542h-0.319c-0.008-0.147-0.076-0.265-0.185-0.353c-0.118-0.086-0.261-0.13-0.437-0.128
						c-0.244,0-0.429,0.082-0.563,0.244c-0.143,0.164-0.21,0.397-0.21,0.699c0,0.301,0.067,0.532,0.21,0.698
						c0.134,0.162,0.319,0.244,0.555,0.244c0.185,0,0.327-0.047,0.445-0.135c0.109-0.088,0.177-0.216,0.185-0.382h0.319
						c-0.017,0.25-0.117,0.441-0.294,0.578C48.382,57.65,48.163,57.717,47.894,57.717"/>
					<path class="st1" d="M51.289,55.341l-0.883,1.706c-0.142,0.275-0.268,0.456-0.361,0.54c-0.1,0.089-0.21,0.131-0.311,0.131
						c-0.11,0-0.21-0.015-0.294-0.039v-0.293c0.059,0.036,0.151,0.053,0.26,0.053c0.134,0,0.269-0.131,0.403-0.391l-0.437-0.853
						l-0.445-0.853h0.345l0.345,0.695l0.345,0.693l0.68-1.389H51.289z"/>
					<path class="st1" d="M53.247,57.398h0.311v0.822h-0.311v-0.544h-1.782v0.546h-0.31v-0.824h0.21
						c0.083-0.137,0.151-0.324,0.202-0.561c0.059-0.237,0.084-0.603,0.084-1.09v-0.406l1.597-0.002V57.398z M52.944,57.398
						l-0.008-1.784h-0.975v0.16c0,0.448-0.025,0.792-0.075,1.032c-0.051,0.239-0.126,0.437-0.21,0.592H52.944z"/>
					<path class="st1" d="M56.104,57.673l-0.353,0.003l-0.269-0.712l-0.975,0.002l-0.26,0.71h-0.328l0.9-2.337h0.328L56.104,57.673z
						 M55.39,56.72l-0.412-1.084l-0.394,1.084H55.39z"/>
					<path class="st1" d="M56.457,55.339h0.873c0.185,0,0.345,0.017,0.48,0.053c0.126,0.035,0.227,0.113,0.303,0.231
						c0.075,0.118,0.117,0.25,0.117,0.397c0,0.235-0.076,0.414-0.227,0.536c-0.151,0.122-0.37,0.185-0.646,0.185h-0.588v0.935
						h-0.311V55.339z M56.768,56.463h0.588c0.201,0,0.344-0.038,0.429-0.111c0.083-0.076,0.126-0.183,0.126-0.322
						c0-0.094-0.025-0.179-0.076-0.25c-0.042-0.071-0.101-0.117-0.177-0.136c-0.067-0.019-0.177-0.028-0.311-0.028l-0.58-0.002
						V56.463z"/>
					<path class="st1" d="M59.608,57.713c-0.327,0-0.588-0.109-0.79-0.326c-0.193-0.218-0.294-0.512-0.294-0.882
						c0-0.37,0.101-0.664,0.294-0.88c0.201-0.219,0.462-0.326,0.79-0.328c0.252,0,0.471,0.068,0.647,0.206
						c0.184,0.137,0.286,0.318,0.303,0.542h-0.319c-0.009-0.149-0.076-0.265-0.193-0.353c-0.109-0.089-0.261-0.13-0.429-0.13
						c-0.235,0-0.428,0.082-0.563,0.244c-0.143,0.163-0.21,0.397-0.21,0.699c0,0.301,0.067,0.534,0.21,0.697
						c0.134,0.164,0.319,0.246,0.554,0.246c0.185,0,0.328-0.047,0.445-0.135c0.109-0.091,0.176-0.217,0.185-0.382h0.319
						c-0.017,0.248-0.118,0.441-0.294,0.576C60.096,57.644,59.877,57.713,59.608,57.713"/>
					<polygon class="st1" points="62.651,55.612 61.877,55.612 61.877,57.672 61.566,57.672 61.566,55.612 60.801,55.614 
						60.801,55.337 62.651,55.335 					"/>
					<path class="st1" d="M64.725,56.993c0,0.218-0.076,0.384-0.219,0.501c-0.151,0.118-0.369,0.177-0.655,0.177h-0.873v-2.337
						h0.832c0.252,0,0.445,0.055,0.588,0.16c0.143,0.107,0.21,0.252,0.21,0.437c0,0.225-0.11,0.39-0.336,0.5
						c0.151,0.038,0.269,0.109,0.345,0.21C64.692,56.745,64.725,56.862,64.725,56.993 M63.289,56.314h0.522
						c0.168,0,0.294-0.027,0.378-0.084c0.076-0.055,0.118-0.145,0.118-0.271c0-0.116-0.042-0.202-0.118-0.258
						c-0.076-0.058-0.21-0.088-0.412-0.088h-0.487V56.314z M63.289,57.394h0.563c0.37,0,0.555-0.134,0.555-0.401
						c0-0.141-0.042-0.242-0.126-0.307c-0.084-0.065-0.243-0.095-0.47-0.095h-0.522V57.394z"/>
					<polygon class="st1" points="66.894,57.669 65.155,57.672 65.155,55.335 66.843,55.335 66.843,55.61 65.465,55.612 
						65.465,56.324 66.751,56.324 66.751,56.601 65.465,56.604 65.465,57.392 66.894,57.392 					"/>
					<polygon class="st1" points="69.162,57.669 68.852,57.669 68.852,56.57 67.641,56.57 67.641,57.669 67.331,57.669 
						67.331,55.335 67.641,55.333 67.641,56.293 68.852,56.293 68.852,55.333 69.162,55.333 					"/>
					<polygon class="st1" points="71.423,57.667 71.112,57.667 71.112,56.568 69.902,56.568 69.902,57.667 69.591,57.667 
						69.591,55.333 69.902,55.333 69.902,56.291 71.112,56.291 71.112,55.333 71.423,55.333 					"/>
					<path class="st1" d="M73.86,57.667h-0.344l-0.269-0.71h-0.984l-0.253,0.71h-0.327l0.891-2.336h0.336L73.86,57.667z
						 M73.154,56.711l-0.412-1.082l-0.395,1.082H73.154z"/>
					<path class="st1" d="M76.053,57.665l-0.311,0.002v-1h-0.571c-0.118,0-0.227,0.036-0.32,0.108
						c-0.092,0.071-0.151,0.161-0.193,0.268l-0.219,0.624h-0.336l0.235-0.636c0.084-0.231,0.21-0.372,0.37-0.422v-0.007
						c-0.16-0.031-0.286-0.103-0.387-0.212c-0.092-0.107-0.135-0.244-0.135-0.403c0-0.143,0.034-0.269,0.101-0.38
						c0.076-0.113,0.168-0.187,0.287-0.222c0.117-0.034,0.26-0.053,0.444-0.053h1.034V57.665z M75.742,56.389v-0.802h-0.74
						c-0.327,0-0.496,0.134-0.496,0.399c0,0.147,0.042,0.252,0.126,0.313c0.084,0.059,0.227,0.09,0.42,0.09H75.742z"/>
					<polygon class="st1" points="79.255,57.663 78.843,57.665 78.02,56.499 77.65,56.856 77.65,57.665 77.347,57.665 77.347,55.33 
						77.65,55.328 77.65,56.486 78.792,55.328 79.205,55.328 78.229,56.289 					"/>
					<path class="st1" d="M80.306,55.289c0.318,0,0.587,0.109,0.798,0.332c0.21,0.22,0.311,0.51,0.311,0.876
						c0,0.361-0.101,0.654-0.311,0.874c-0.202,0.221-0.471,0.332-0.798,0.332c-0.328,0.002-0.597-0.109-0.807-0.33
						c-0.21-0.222-0.319-0.515-0.319-0.876c0-0.364,0.109-0.656,0.319-0.876C79.709,55.4,79.978,55.289,80.306,55.289
						 M80.298,57.438c0.234,0,0.428-0.082,0.579-0.248c0.143-0.166,0.218-0.397,0.218-0.693c0-0.298-0.076-0.529-0.218-0.695
						c-0.151-0.166-0.345-0.248-0.571-0.248c-0.236,0-0.43,0.082-0.581,0.248c-0.152,0.166-0.227,0.397-0.227,0.695
						c0.008,0.296,0.075,0.528,0.227,0.693C79.876,57.356,80.07,57.438,80.298,57.438"/>
					<polygon class="st1" points="84.02,57.663 83.734,57.663 83.725,55.676 83.062,57.663 82.784,57.663 82.12,55.676 
						82.12,57.663 81.826,57.663 81.826,55.326 82.288,55.326 82.927,57.274 83.557,55.326 84.02,55.326 					"/>
					<polygon class="st1" points="86.473,57.661 86.171,57.661 86.162,55.602 84.952,55.604 84.952,57.663 84.642,57.663 
						84.642,55.326 86.473,55.326 					"/>
					<path class="st1" d="M89.019,57.659h-0.353l-0.269-0.71l-0.983,0.002l-0.253,0.71h-0.327l0.89-2.336h0.336L89.019,57.659z
						 M88.305,56.705l-0.411-1.084l-0.387,1.084H88.305z"/>
					<polygon class="st1" points="91.238,57.659 90.927,57.659 90.927,56.56 89.717,56.56 89.717,57.659 89.406,57.659 
						89.406,55.324 89.709,55.324 89.717,56.282 90.927,56.282 90.927,55.322 91.238,55.322 					"/>
					<polygon class="st1" points="93.591,57.659 93.297,57.659 93.297,55.78 92.078,57.659 91.759,57.659 91.759,55.322 
						92.053,55.322 92.053,57.198 93.272,55.322 93.591,55.322 					"/>
					<path class="st1" d="M95.943,57.656h-0.31v-0.998H95.07c-0.126,0-0.227,0.036-0.319,0.108c-0.092,0.071-0.16,0.161-0.193,0.269
						l-0.219,0.624h-0.336l0.235-0.637c0.084-0.231,0.202-0.372,0.37-0.423v-0.006c-0.168-0.034-0.294-0.103-0.387-0.213
						c-0.092-0.109-0.142-0.243-0.142-0.404c0-0.142,0.033-0.268,0.109-0.382c0.076-0.111,0.168-0.184,0.277-0.22
						c0.118-0.036,0.269-0.053,0.446-0.053h1.033V57.656z M95.633,56.381v-0.802h-0.731c-0.336,0-0.504,0.135-0.504,0.399
						c0,0.148,0.05,0.253,0.134,0.313c0.084,0.059,0.227,0.09,0.411,0.09H95.633z"/>
					<path class="st2" d="M82.12,51.125c-0.37,1.126-1.126,1.628-2.277,1.63h-4.547c-2.218,0.002-2.101-1.966-1.866-2.697
						l2.194-6.683c0.369-1.126,1.058-1.628,2.218-1.628l4.546-0.004c2.219,0,2.143,1.97,1.907,2.702L82.12,51.125z M76.036,49.875
						c-0.167,0.517-0.209,1.071,0.547,1.071l2.033,0.002c0.883-0.002,1.042-0.183,1.353-1.119l1.714-5.21
						c0.169-0.519,0.177-1.073-0.579-1.071l-2.009,0.002c-0.882,0-1.042,0.176-1.353,1.114L76.036,49.875z"/>
					<path class="st2" d="M104.616,51.116c-0.37,1.126-1.117,1.626-2.277,1.628l-4.546,0.002c-2.219,0-2.101-1.968-1.866-2.7
						l2.194-6.651c0.369-1.126,1.067-1.626,2.218-1.628h4.546c2.218-0.002,2.143,1.966,1.908,2.697L104.616,51.116z M98.54,49.865
						c-0.175,0.517-0.218,1.073,0.538,1.071l2.042,0.002c0.874,0,1.034-0.183,1.353-1.118l1.706-5.178
						c0.168-0.519,0.177-1.074-0.58-1.074l-2.009,0.002c-0.883,0-1.034,0.179-1.353,1.113L98.54,49.865z"/>
					<path class="st2" d="M106.027,52.721l2.563-0.002l1.58-4.842l4.068-0.006c1.303,0.002,1.916-0.536,2.319-1.685l0.571-1.784
						c0.394-1.484-0.261-2.664-1.774-2.681l-5.706,0.004L106.027,52.721z M110.649,46.443l2.529-0.002
						c0.252-0.008,0.773-0.046,1.009-0.834l0.378-1.145c0.151-0.492-0.026-0.908-0.58-0.923h-2.369L110.649,46.443z"/>
					<path class="st3" d="M16.592,58.278h-1.958c-1.034-0.014-2.202-0.449-1.79-2.301c-0.05,0.786,0.446,1.595,1.336,1.707
						l2.773-0.002L16.592,58.278z M30.517,57.673l-0.101,0.598c-3.159,0-6.075,0.004-9.227,0.004l0.336-0.596L30.517,57.673z
						 M37.743,58.278h-3.639l-0.008-0.605c0.966,0.003,2.101-0.004,3.075,0l5.177-15.895h0.756L37.743,58.278z"/>
				</g>
			</g>
		</g>
	</g>
</g>
</svg>
