<?xml version="1.0" encoding="utf-8"?>
<!-- Generator: Adobe Illustrator 22.0.0, SVG Export Plug-In . SVG Version: 6.00 Build 0)  -->
<svg version="1.1" id="Слой_1" xmlns="http://www.w3.org/2000/svg" xmlns:xlink="http://www.w3.org/1999/xlink" x="0px" y="0px"
	 viewBox="0 0 130 100" style="enable-background:new 0 0 130 100;" xml:space="preserve">
<style type="text/css">
	.st0{fill:#4070B2;}
</style>
<g>
	<path class="st0" d="M93.299,54.505c-0.345,0-0.622-0.254-0.622-0.582c0-0.007,0-0.015,0-0.021l-0.008-9.8v-0.04V44.02
		c0.034-0.29,0.303-0.521,0.631-0.521c0.319,0,0.588,0.23,0.621,0.521v0.042c0,0.004,0,0.034,0,0.034l0.008,9.807
		c0,0.006,0,0.013,0,0.021C93.928,54.251,93.643,54.505,93.299,54.505 M94.466,41.69l-2.354,0.002c-1.982,0-2.1,1.592-2.1,2.618
		v9.392c0,1.021,0.126,2.612,2.109,2.612l2.354-0.003c1.992-0.002,2.109-1.59,2.109-2.611l-0.008-9.395
		C96.575,43.28,96.458,41.69,94.466,41.69"/>
	<polygon class="st0" points="50.215,41.709 55.627,41.707 55.635,43.524 53.055,43.526 53.055,56.331 50.215,56.331 	"/>
	<path class="st0" d="M56.055,56.328l2.782-0.002l0.26-3.887h1.336l0.269,3.887h2.773l-1.487-14.622l-4.454,0.002L56.055,56.328z
		 M59.198,50.835l0.487-7.313h0.151l0.496,7.311L59.198,50.835z"/>
	<path class="st0" d="M67.543,51.202v2.754c0,0.374,0.277,0.483,0.445,0.483c0.261,0,0.447-0.231,0.447-0.483v-3.399
		c0-0.462-0.085-0.962-1.135-0.962l-1.16,0.003V47.99h1.194c0.815,0,1.101-0.189,1.101-1.084v-2.912
		c0-0.248-0.186-0.474-0.455-0.474c-0.159,0-0.445,0.1-0.445,0.474l0.008,2.389l-2.841,0.002v-2.064
		c0-1.025,0.118-2.618,2.101-2.618l2.353-0.003c1.992,0,2.109,1.59,2.109,2.618l0.008,2.336c0,1.589-1.076,2.021-1.932,1.979v0.151
		c1.907-0.046,1.932,1.458,1.932,1.983v2.943c0,1.021-0.118,2.612-2.109,2.612l-2.353,0.002c-1.983,0-2.109-1.59-2.109-2.609v-2.511
		L67.543,51.202z"/>
	<polygon class="st0" points="73.138,41.701 79.71,41.696 79.71,56.318 77.063,56.32 77.055,43.516 75.785,43.516 75.785,56.32 
		73.138,56.322 	"/>
	<path class="st0" d="M81.769,56.318l2.84-0.003v-4.97h1.622c1.983-0.002,2.302-1.588,2.302-2.613l-0.007-4.422
		c0-1.025-0.312-2.618-2.303-2.615l-4.462,0.002L81.769,56.318z M84.6,49.736v-6.225h0.748c0.303,0,0.53,0.269,0.53,0.725v4.771
		c0,0.456-0.218,0.727-0.53,0.727L84.6,49.736z"/>
	<polygon class="st0" points="105.634,41.686 109.331,41.684 109.339,56.306 106.492,56.306 106.492,47.137 106.39,47.139 
		104.937,56.307 102.659,56.31 101.198,47.142 101.096,47.142 101.105,56.31 98.256,56.31 98.256,41.688 101.945,41.688 
		103.794,51.961 	"/>
	<path class="st0" d="M44.156,43.201c-0.034,1.483-0.21,3.045-0.437,3.978c0.077-1.605-0.118-3.878-0.487-5.657
		c-0.378-1.775-1.445-4.733-2.294-6.107c-0.774,1.307-1.739,3.871-2.244,6.094c-0.504,2.225-0.521,4.92-0.521,5.729
		c-0.135-0.687-0.471-3.114-0.378-5.55c0.084-2.014,0.563-4.082,0.824-5.032c0.991-3.178,2.109-5.208,2.319-5.527
		c0.218,0.321,1.639,2.819,2.37,5.445C44.039,39.203,44.19,41.717,44.156,43.201 M40.971,54.547c-0.445-0.821-1.134-2.386-1.201-4.8
		c-0.008-2.336,0.932-4.336,1.21-4.76c0.244,0.424,1.059,2.166,1.16,4.548C42.207,51.872,41.425,53.705,40.971,54.547
		 M44.417,36.608c-0.9-3.887-3.152-7.044-3.463-7.558c-0.488,0.727-2.277,3.514-3.193,6.608c-0.991,3.452-1.135,6.513-0.79,9.527
		c0.336,3.013,1.63,6.112,1.63,6.112c0.689,1.619,1.715,3.357,2.378,4.214c0.984-1.256,3.235-5.01,3.933-9.91
		C45.291,42.877,45.316,40.491,44.417,36.608"/>
	<path class="st0" d="M35.467,56.335v4.594c0.008-0.006,0.008-0.011,0.017-0.019c1.631-1.599,4.261-1.6,5.891-0.004
		c1.622,1.603,1.622,4.202,0,5.796c-0.008,0.01-0.017,0.017-0.025,0.023l0,0c0,0.008-0.017,0.017-0.025,0.021
		c-1.622,1.584-3.731,2.382-5.849,2.385c-2.134,0-4.261-0.801-5.882-2.397c-2.857-2.815-3.202-7.176-1.024-10.361
		c0.294-0.427,0.63-0.834,1.016-1.216c1.621-1.603,3.748-2.401,5.882-2.403l-0.008-10.958c-8.176,0.002-14.807,6.536-14.798,14.582
		c0,8.054,6.639,14.577,14.815,14.573c4.261-0.002,8.092-1.775,10.798-4.62v-10L35.467,56.335z"/>
	<path class="st0" d="M106.692,67.467c0,1.393-0.638,1.637-2.268,1.637l-1.504,0.002v-6.346h1.504v2.447h0.244
		c1.479-0.002,2.024,0.34,2.024,1.607V67.467z M94.189,63.961h-1.142v5.153h-1.42v-5.153h-1.219v-1.201h3.773L94.189,63.961z
		 M82.66,66.851c0,1.29-0.664,1.637-2.143,1.637v0.628h-1.454v-0.628c-1.479,0.002-2.151-0.347-2.151-1.632v-1.981
		c0-1.3,0.639-1.628,2.143-1.628v-0.477l1.453-0.002v0.477c1.504,0,2.143,0.325,2.143,1.628L82.66,66.851z M69.071,63.971h-2.05
		v1.25l1.832-0.002v1.204l-1.832,0.002v1.498l2.05-0.003v1.204l-3.596,0.002v-6.355l3.596-0.002V63.971z M56.644,69.124
		l-1.496,0.002v-2.775h-0.773v2.775h-1.496l-0.008-6.346h1.505v2.447h0.773l-0.008-2.447h1.505V69.124z M109.339,61.175L50.224,61.2
		v9.744l59.116-0.025V61.175z M78.366,64.826v2.038c0,0.374,0.118,0.454,0.454,0.454h0.236V64.36h-0.236
		C78.484,64.36,78.366,64.458,78.366,64.826 M80.743,64.36h-0.235l0.008,2.955h0.227c0.337,0,0.454-0.088,0.454-0.461v-2.043
		C81.198,64.438,81.08,64.36,80.743,64.36 M104.752,66.329h-0.327v1.661l0.327-0.002c0.336,0,0.437-0.086,0.437-0.45v-0.762
		C105.189,66.406,105.088,66.329,104.752,66.329"/>
</g>
</svg>
