<?xml version="1.0" encoding="utf-8"?>
<!-- Generator: Adobe Illustrator 22.0.0, SVG Export Plug-In . SVG Version: 6.00 Build 0)  -->
<svg version="1.1" id="Слой_1" xmlns="http://www.w3.org/2000/svg" xmlns:xlink="http://www.w3.org/1999/xlink" x="0px" y="0px"
	 viewBox="0 0 141.067 100" style="enable-background:new 0 0 141.067 100;" xml:space="preserve">
<style type="text/css">
	.st0{fill:url(#SVGID_1_);}
	.st1{fill:url(#SVGID_2_);}
</style>
<g>
	
		<radialGradient id="SVGID_1_" cx="2579.6116" cy="-2714.3381" r="35.0871" gradientTransform="matrix(0.4642 0.8858 -0.8858 0.4642 -3566.4917 -964.667)" gradientUnits="userSpaceOnUse">
		<stop  offset="0.2857" style="stop-color:#B8006E"/>
		<stop  offset="0.4276" style="stop-color:#B4026E"/>
		<stop  offset="0.573" style="stop-color:#A8076F"/>
		<stop  offset="0.72" style="stop-color:#931070"/>
		<stop  offset="0.8671" style="stop-color:#771C72"/>
		<stop  offset="1" style="stop-color:#562A74"/>
	</radialGradient>
	<path class="st0" d="M37.3,95.177l-11.753-3.692l-11.753-3.692c-1.924-0.604-3.614-1.699-4.932-3.135
		c-1.319-1.436-2.266-3.212-2.704-5.18L3.478,67.453L0.799,55.429c-0.439-1.968-0.336-3.98,0.248-5.839
		c0.584-1.86,1.649-3.569,3.135-4.933l9.074-8.333l9.074-8.333c1.485-1.364,3.278-2.28,5.181-2.704
		c1.903-0.424,3.915-0.356,5.839,0.249l11.753,3.692l11.753,3.692c1.924,0.605,3.614,1.699,4.932,3.135
		c1.319,1.436,2.266,3.212,2.704,5.18l2.68,12.025l2.679,12.024c0.439,1.968,0.336,3.979-0.249,5.839
		c-0.584,1.86-1.649,3.568-3.134,4.933l-9.074,8.332l-9.073,8.333c-1.486,1.364-3.279,2.28-5.181,2.704
		C41.237,95.85,39.224,95.782,37.3,95.177z"/>
	
		<radialGradient id="SVGID_2_" cx="-1130.1222" cy="3547.0557" r="45.0177" gradientTransform="matrix(-1.0001 0 0 -1.0001 -1034.7046 3596.7502)" gradientUnits="userSpaceOnUse">
		<stop  offset="0.2081" style="stop-color:#3E5582"/>
		<stop  offset="0.3639" style="stop-color:#3B4F73"/>
		<stop  offset="0.7773" style="stop-color:#354150"/>
		<stop  offset="1" style="stop-color:#333C43"/>
	</radialGradient>
	<path class="st1" d="M54.783,30.845l11.197-11.158L77.175,8.53c1.833-1.827,4.083-3.095,6.5-3.739c2.417-0.643,5-0.661,7.498,0.013
		l15.26,4.118l15.261,4.117c2.499,0.674,4.723,1.989,6.487,3.761c1.766,1.771,3.073,4,3.738,6.5l4.065,15.275l4.065,15.276
		c0.665,2.5,0.639,5.083-0.013,7.498c-0.651,2.414-1.928,4.66-3.76,6.487l-11.196,11.158L113.886,90.15
		c-1.833,1.827-4.083,3.095-6.5,3.739c-2.417,0.644-5,0.661-7.498-0.012l-15.262-4.117l-15.261-4.117
		c-2.498-0.674-4.722-1.989-6.487-3.761c-1.766-1.771-3.073-3.999-3.738-6.5l-4.065-15.275L51.01,44.831
		c-0.666-2.501-0.639-5.083,0.012-7.498C51.674,34.918,52.95,32.672,54.783,30.845z"/>
</g>
</svg>
