<?xml version="1.0" encoding="utf-8"?>
<!-- Generator: Adobe Illustrator 22.0.0, SVG Export Plug-In . SVG Version: 6.00 Build 0)  -->
<svg version="1.1" id="Слой_1" xmlns="http://www.w3.org/2000/svg" xmlns:xlink="http://www.w3.org/1999/xlink" x="0px" y="0px"
	 viewBox="0 0 93.067 100" style="enable-background:new 0 0 93.067 100;" xml:space="preserve">
<style type="text/css">
	.st0{fill:url(#SVGID_1_);}
	.st1{fill:url(#SVGID_2_);}
</style>
<g>
	
		<radialGradient id="SVGID_1_" cx="1841.4913" cy="-1814.9298" r="29.5525" gradientTransform="matrix(0.6558 0.755 -0.755 0.6558 -2515.813 -139.2044)" gradientUnits="userSpaceOnUse">
		<stop  offset="0.2857" style="stop-color:#B8006E"/>
		<stop  offset="0.4276" style="stop-color:#B4026E"/>
		<stop  offset="0.573" style="stop-color:#A8076F"/>
		<stop  offset="0.72" style="stop-color:#931070"/>
		<stop  offset="0.8671" style="stop-color:#771C72"/>
		<stop  offset="1" style="stop-color:#562A74"/>
	</radialGradient>
	<path class="st0" d="M70.484,89.045L60.134,88.3l-10.349-0.745c-1.694-0.122-3.292-0.691-4.651-1.612
		c-1.359-0.921-2.48-2.193-3.221-3.721l-4.529-9.336l-4.529-9.335c-0.742-1.528-1.048-3.196-0.93-4.834
		c0.118-1.638,0.659-3.245,1.612-4.651l5.82-8.59l5.82-8.59c0.953-1.406,2.245-2.505,3.721-3.222
		c1.478-0.716,3.14-1.051,4.834-0.929l10.349,0.745l10.349,0.746c1.694,0.122,3.291,0.691,4.651,1.613
		c1.359,0.921,2.48,2.193,3.221,3.721l4.529,9.336l4.529,9.335c0.742,1.528,1.047,3.196,0.929,4.834
		c-0.118,1.637-0.659,3.244-1.612,4.651l-5.82,8.59l-5.82,8.59c-0.953,1.406-2.245,2.505-3.722,3.222
		C73.841,88.833,72.178,89.168,70.484,89.045z"/>
	
		<radialGradient id="SVGID_2_" cx="-874.4979" cy="146.0448" r="36.3671" gradientTransform="matrix(0.9907 -0.1358 0.1358 0.9907 883.4388 -214.7299)" gradientUnits="userSpaceOnUse">
		<stop  offset="0.4836" style="stop-color:#DB8D2F;stop-opacity:0.6"/>
		<stop  offset="1" style="stop-color:#DB8D2F"/>
	</radialGradient>
	<path class="st1" d="M68.48,67.865l-10.268,8.044l-10.268,8.044c-1.681,1.317-3.649,2.135-5.693,2.425
		c-2.043,0.29-4.162,0.051-6.143-0.746l-12.101-4.87l-12.101-4.87c-1.981-0.798-3.674-2.093-4.947-3.717
		c-1.273-1.625-2.125-3.579-2.425-5.693L2.702,53.567L0.87,40.652c-0.3-2.114-0.025-4.228,0.746-6.143s2.036-3.63,3.717-4.947
		l10.268-8.044l10.268-8.044c1.681-1.317,3.649-2.135,5.693-2.425s4.162-0.051,6.143,0.746l12.101,4.871l12.101,4.87
		c1.981,0.797,3.674,2.093,4.947,3.717c1.273,1.625,2.125,3.579,2.425,5.693l1.832,12.915l1.832,12.915
		c0.3,2.114,0.025,4.228-0.746,6.143C71.427,64.832,70.161,66.548,68.48,67.865z"/>
</g>
</svg>
