<?xml version="1.0" encoding="utf-8"?>
<!-- Generator: Adobe Illustrator 22.0.0, SVG Export Plug-In . SVG Version: 6.00 Build 0)  -->
<svg version="1.1" id="Слой_1" xmlns="http://www.w3.org/2000/svg" xmlns:xlink="http://www.w3.org/1999/xlink" x="0px" y="0px"
	 viewBox="0 0 100 100" style="enable-background:new 0 0 100 100;" xml:space="preserve">
<style type="text/css">
	.st0{fill:url(#SVGID_1_);}
	.st1{fill:url(#SVGID_2_);}
</style>
<g>
	
		<radialGradient id="SVGID_1_" cx="1850.2507" cy="-1806.7263" r="31.7853" gradientTransform="matrix(0.6558 0.755 -0.755 0.6558 -2510.7205 -150.3747)" gradientUnits="userSpaceOnUse">
		<stop  offset="0.2857" style="stop-color:#B8006E"/>
		<stop  offset="0.4276" style="stop-color:#B4026E"/>
		<stop  offset="0.573" style="stop-color:#A8076F"/>
		<stop  offset="0.72" style="stop-color:#931070"/>
		<stop  offset="0.8671" style="stop-color:#771C72"/>
		<stop  offset="1" style="stop-color:#562A74"/>
	</radialGradient>
	<path class="st0" d="M75.76,91.996l-11.131-0.802l-11.131-0.802c-1.822-0.131-3.54-0.743-5.002-1.734
		c-1.462-0.99-2.668-2.359-3.465-4.002L40.16,74.614l-4.871-10.04c-0.798-1.644-1.127-3.438-1-5.199
		c0.127-1.761,0.709-3.49,1.734-5.002l6.26-9.239l6.26-9.239c1.025-1.512,2.414-2.694,4.003-3.465
		c1.589-0.77,3.377-1.131,5.199-0.999l11.131,0.801l11.131,0.802c1.822,0.132,3.54,0.744,5.002,1.735
		c1.462,0.99,2.667,2.359,3.464,4.002l4.871,10.041l4.871,10.041c0.798,1.644,1.126,3.438,0.999,5.199
		c-0.127,1.761-0.709,3.489-1.734,5.002l-6.26,9.239l-6.26,9.239c-1.025,1.512-2.414,2.694-4.003,3.465
		C79.37,91.767,77.582,92.127,75.76,91.996z"/>
	
		<radialGradient id="SVGID_2_" cx="-871.6343" cy="144.3112" r="39.1148" gradientTransform="matrix(0.9907 -0.1358 0.1358 0.9907 883.5764 -212.7207)" gradientUnits="userSpaceOnUse">
		<stop  offset="0.4836" style="stop-color:#DB8D2F;stop-opacity:0.6"/>
		<stop  offset="1" style="stop-color:#DB8D2F"/>
	</radialGradient>
	<path class="st1" d="M73.605,69.214l-11.044,8.652l-11.044,8.652c-1.808,1.416-3.925,2.297-6.123,2.608
		c-2.198,0.312-4.476,0.055-6.607-0.802l-13.015-5.238l-13.015-5.238c-2.13-0.858-3.952-2.251-5.32-3.998
		c-1.369-1.747-2.286-3.849-2.609-6.123L2.857,53.836L0.886,39.945c-0.323-2.274-0.026-4.548,0.802-6.607
		c0.829-2.059,2.19-3.904,3.998-5.32l11.044-8.652l11.044-8.652c1.808-1.416,3.925-2.297,6.123-2.609
		c2.198-0.312,4.476-0.055,6.607,0.802l13.015,5.238l13.015,5.238c2.131,0.858,3.951,2.251,5.32,3.998
		c1.369,1.747,2.286,3.849,2.608,6.123l1.971,13.891l1.971,13.89c0.323,2.274,0.026,4.548-0.802,6.607
		C76.774,65.953,75.413,67.798,73.605,69.214z"/>
</g>
</svg>
