<?xml version="1.0" encoding="utf-8"?>
<!-- Generator: Adobe Illustrator 22.0.0, SVG Export Plug-In . SVG Version: 6.00 Build 0)  -->
<svg version="1.1" id="Слой_1" xmlns="http://www.w3.org/2000/svg" xmlns:xlink="http://www.w3.org/1999/xlink" x="0px" y="0px"
	 viewBox="0 0 100 72.154" style="enable-background:new 0 0 100 72.154;" xml:space="preserve">
<style type="text/css">
	.st0{fill:#333C43;}
	.st1{fill:#C95B2D;}
</style>
<g>
	<polygon class="st0" points="68.265,0 37.123,17.963 68.271,1.501 76.498,6.165 97.165,19.761 98.677,50.724 98.687,53.256 
		68.527,70.653 37.259,54.416 68.53,72.154 100,54.003 99.871,17.925 	"/>
	<polygon class="st0" points="68.849,0.98 38.841,18.289 68.855,2.427 76.78,6.921 96.694,20.022 98.15,49.857 98.16,52.298 
		69.097,69.061 38.97,53.415 69.104,70.508 99.427,53.018 99.304,18.253 	"/>
	<polygon class="st0" points="69.429,1.961 40.555,18.616 69.439,3.353 77.062,7.678 96.227,20.284 97.626,48.991 97.636,51.34 
		69.671,67.469 40.678,52.415 69.674,68.863 98.853,52.033 98.734,18.581 	"/>
	<polygon class="st0" points="70.012,2.941 42.269,18.942 70.019,4.278 77.344,8.434 95.756,20.545 97.102,48.125 97.109,50.382 
		70.244,65.878 42.389,51.415 70.248,67.216 98.282,51.046 98.167,18.908 	"/>
	<polygon class="st0" points="70.592,3.922 43.987,19.268 70.599,5.204 77.625,9.19 95.285,20.806 96.575,47.261 96.585,49.424 
		70.815,64.288 44.1,50.415 70.821,65.57 97.706,50.061 97.596,19.237 	"/>
	<polygon class="st0" points="71.176,4.902 45.701,19.596 71.18,6.13 77.907,9.946 94.814,21.067 96.051,46.394 96.061,48.466 
		71.388,62.696 45.811,49.415 71.392,63.924 97.135,49.077 97.029,19.565 	"/>
	<polygon class="st0" points="71.756,5.882 47.415,19.922 71.76,7.056 78.192,10.701 94.347,21.329 95.527,45.528 95.534,47.508 
		71.962,61.105 47.522,48.414 71.965,62.278 96.561,48.092 96.459,19.892 	"/>
	<polygon class="st0" points="72.34,6.863 49.13,20.248 72.343,7.981 78.474,11.458 93.876,21.59 95.003,44.662 95.007,46.55 
		72.532,59.514 49.232,47.414 72.536,60.633 95.988,47.106 95.892,20.22 	"/>
	<polygon class="st0" points="72.92,7.843 50.847,20.574 72.924,8.906 78.756,12.213 93.405,21.851 94.476,43.796 94.483,45.592 
		73.106,57.923 50.94,46.413 73.109,58.987 95.414,46.121 95.322,20.548 	"/>
	<polygon class="st0" points="73.501,8.824 52.561,20.901 73.507,9.833 79.038,12.969 92.934,22.111 93.952,42.93 93.959,44.634 
		73.676,56.332 52.651,45.414 73.68,57.34 94.841,45.135 94.755,20.876 	"/>
	<polygon class="st0" points="74.084,9.804 54.276,21.228 74.087,10.758 79.32,13.725 92.467,22.372 93.425,42.064 93.432,43.676 
		74.25,54.74 54.362,44.413 74.253,55.695 94.267,44.15 94.188,21.205 	"/>
	<polygon class="st0" points="74.668,10.784 55.993,21.555 74.668,11.684 79.601,14.481 91.996,22.633 92.901,41.199 92.908,42.718 
		74.823,53.149 56.073,43.413 74.823,54.049 93.694,43.166 93.617,21.532 	"/>
	<path class="st0" d="M45.887,37.048v1.832h-0.481c-0.176,0-0.497-0.012-0.729-0.222c-0.166-0.146-0.279-0.387-0.279-0.694
		c0-0.369,0.176-0.674,0.471-0.815c0.172-0.083,0.381-0.101,0.577-0.101H45.887z M43.98,41.037h0.328l1.263-1.903h0.315v1.903h0.275
		v-4.243h-0.716c-0.252,0-0.544,0.018-0.789,0.165c-0.229,0.134-0.55,0.446-0.55,1.005c0,0.784,0.544,1.024,0.677,1.075
		c0.136,0.051,0.308,0.089,0.474,0.095L43.98,41.037z M43.012,41.037h0.279v-4.289l-3.004,3.646v-3.601h-0.279v4.352l3.004-3.645
		V41.037z M35.84,41.037h3.279v0.853h0.265v-1.107h-0.481v-3.989h-0.279v3.989h-2.51v-3.989H35.84V41.037z M31.991,36.793h-0.275
		v4.243h0.275v-2.189h2.55v2.189h0.275v-4.243H34.54v1.8h-2.55V36.793z M30.963,36.793h-2.016v4.243h2.016v-0.254h-1.741v-1.941
		h1.704v-0.253h-1.704v-1.541h1.741V36.793z M26.499,37.048h0.511c0.613,0,0.968,0.33,0.968,0.859c0,0.534-0.375,0.859-0.922,0.859
		h-0.557V37.048z M27.043,39.02c0.726,0,1.224-0.413,1.224-1.12c0-0.726-0.544-1.106-1.23-1.106h-0.812v4.243h0.275V39.02H27.043z
		 M25.472,36.793h-2.016v4.243h2.016v-0.254h-1.741v-1.941h1.704v-0.253h-1.704v-1.541h1.741V36.793z M20.588,37.384h0.189
		c1.303,0,1.628,0.789,1.628,1.401c0,0.611-0.325,1.401-1.628,1.401h-0.189V37.384z M20.312,40.186h-0.189
		c-1.303,0-1.628-0.79-1.628-1.401c0-0.611,0.325-1.401,1.628-1.401h0.189V40.186z M20.312,41.037h0.275v-0.598h0.176
		c1.568,0,1.933-0.967,1.933-1.654c0-0.688-0.365-1.653-1.933-1.653h-0.176v-0.509h-0.275v0.509h-0.179
		c-1.565,0-1.93,0.965-1.93,1.653c0,0.688,0.365,1.654,1.93,1.654h0.179V41.037z M14.622,36.793h-0.279v4.243h0.279v-2.189h2.55
		v2.189h0.275v-4.243h-0.275v1.8h-2.55V36.793z M11.39,40.853c-1.084,0-1.893-0.846-1.893-1.929c0-1.087,0.809-1.934,1.893-1.934
		s1.893,0.847,1.893,1.934C13.283,40.007,12.474,40.853,11.39,40.853 M11.39,36.737c-1.23,0-2.182,0.966-2.182,2.187
		c0,1.223,0.952,2.184,2.182,2.184s2.182-0.961,2.182-2.184C13.571,37.702,12.62,36.737,11.39,36.737 M6.721,36.793H6.446v4.243
		h0.275v-1.915l0.116-0.108l1.98,2.023h0.378l-2.159-2.214l2.039-2.029H8.707l-1.986,1.997V36.793z"/>
	<path class="st0" d="M45.887,30.32v1.833h-0.481c-0.176,0-0.497-0.013-0.729-0.223c-0.166-0.146-0.279-0.387-0.279-0.693
		c0-0.37,0.176-0.675,0.471-0.815c0.172-0.084,0.381-0.102,0.577-0.102H45.887z M43.98,34.31h0.328l1.263-1.903h0.315v1.903h0.275
		v-4.243h-0.716c-0.252,0-0.544,0.019-0.789,0.164c-0.229,0.135-0.55,0.447-0.55,1.007c0,0.783,0.544,1.024,0.677,1.075
		c0.136,0.051,0.308,0.09,0.474,0.095L43.98,34.31z M40.983,32.662l0.802-2.01l0.789,2.01H40.983z M43.234,34.31h0.302l-1.747-4.37
		l-1.771,4.37h0.302l0.564-1.393h1.79L43.234,34.31z M37.485,32.243h0.656c0.468,0,0.676,0.069,0.789,0.12
		c0.315,0.146,0.448,0.407,0.448,0.79c0,0.197-0.043,0.445-0.272,0.648c-0.282,0.255-0.63,0.255-0.915,0.255h-0.706V32.243z
		 M37.485,30.32h0.537c0.219,0,0.491,0.012,0.699,0.177c0.139,0.115,0.285,0.325,0.285,0.662c0,0.293-0.11,0.51-0.279,0.65
		c-0.182,0.153-0.358,0.178-0.574,0.178h-0.67V30.32z M37.21,34.31h1.154c0.763,0,1.303-0.445,1.303-1.189
		c0-0.548-0.318-0.973-0.869-1.063c0.279-0.171,0.491-0.471,0.491-0.929c0-0.637-0.428-1.062-1.161-1.062H37.21V34.31z
		 M36.457,30.066h-2.016v4.243h2.016v-0.253h-1.741v-1.942h1.704v-0.253h-1.704V30.32h1.741V30.066z M31.049,30.066v2.723
		c0,0.433,0,0.892-0.239,1.14c-0.083,0.083-0.222,0.165-0.411,0.165c-0.09,0-0.169-0.019-0.232-0.038v0.253
		c0.076,0.02,0.176,0.038,0.252,0.038c0.272,0,0.484-0.114,0.613-0.254c0.295-0.324,0.295-0.833,0.295-1.305V30.32h1.817v3.989
		h0.275v-4.243H31.049z M29.693,30.562c-0.126-0.122-0.613-0.554-1.412-0.554c-1.21,0-2.182,0.966-2.182,2.19
		c0,1.182,0.932,2.182,2.195,2.182c0.454,0,0.971-0.146,1.399-0.528v-0.369c-0.428,0.471-0.991,0.643-1.412,0.643
		c-0.852,0-1.893-0.655-1.893-1.915c0-1.076,0.809-1.948,1.887-1.948c0.544,0,1.061,0.242,1.419,0.668V30.562z M23.34,32.662
		l0.799-2.01l0.789,2.01H23.34z M25.591,34.31h0.302l-1.747-4.37l-1.771,4.37h0.302l0.56-1.393h1.794L25.591,34.31z M20.72,30.32
		h0.511c0.613,0,0.965,0.33,0.965,0.859c0,0.534-0.371,0.86-0.922,0.86H20.72V30.32z M21.264,32.292c0.723,0,1.22-0.412,1.22-1.119
		c0-0.727-0.541-1.107-1.227-1.107h-0.816v4.243h0.279v-2.017H21.264z M19.822,30.32v-0.254h-2.457v0.254h1.091v3.989h0.275V30.32
		H19.822z M15.08,34.126c-1.084,0-1.89-0.846-1.89-1.927c0-1.09,0.806-1.936,1.89-1.936c1.088,0,1.893,0.846,1.893,1.936
		C16.973,33.279,16.168,34.126,15.08,34.126 M15.08,30.009c-1.227,0-2.178,0.966-2.178,2.19c0,1.221,0.952,2.182,2.178,2.182
		c1.233,0,2.185-0.961,2.185-2.182C17.265,30.975,16.313,30.009,15.08,30.009 M10.322,30.066v1.998l-1.781-1.998H8.177l1.867,2.056
		L8.037,34.31h0.368l1.834-1.997l0.083,0.083v1.914h0.275v-1.914l0.083-0.083l1.834,1.997h0.368l-2.006-2.188l1.867-2.056h-0.365
		l-1.781,1.998v-1.998H10.322z M7.533,30.066H5.517v4.243h2.016v-0.253H5.793v-1.942h1.704v-0.253H5.793V30.32h1.741V30.066z
		 M0.275,34.31l0.371-3.41l1.655,3.563L3.952,30.9l0.375,3.41h0.275l-0.477-4.39l-1.824,3.926L0.477,29.92L0,34.31H0.275z"/>
	<path class="st1" d="M44.836,27.031c-0.368,0-0.643-0.274-0.643-0.662c0-0.389,0.275-0.662,0.643-0.662
		c0.365,0,0.643,0.274,0.643,0.662C45.479,26.756,45.2,27.031,44.836,27.031 M44.836,25.026c-0.348,0-0.587-0.242-0.587-0.592
		c0-0.35,0.239-0.593,0.587-0.593c0.348,0,0.587,0.242,0.587,0.593C45.423,24.784,45.184,25.026,44.836,25.026 M45.549,25.37
		c0.321-0.159,0.607-0.472,0.607-0.942c0-0.619-0.444-1.184-1.32-1.184c-0.879,0-1.32,0.566-1.32,1.184
		c0,0.47,0.285,0.783,0.607,0.942c-0.467,0.152-0.753,0.565-0.753,1.055c0,0.7,0.557,1.254,1.466,1.254s1.462-0.554,1.462-1.254
		C46.298,25.935,46.013,25.522,45.549,25.37 M41.238,27.583h0.819v-4.244h-1.426v0.713h0.607V27.583z M38.267,23.956
		c0.355,0,0.809,0.401,0.809,1.502c0,1.107-0.451,1.508-0.809,1.508c-0.358,0-0.809-0.4-0.809-1.508
		C37.458,24.357,37.912,23.956,38.267,23.956 M38.267,27.679c0.839,0,1.628-0.756,1.628-2.214c0-1.465-0.789-2.221-1.628-2.221
		c-0.839,0-1.628,0.756-1.628,2.215C36.639,26.923,37.428,27.679,38.267,27.679 M32.942,27.583h3.05v-0.712h-1.522l0.726-0.796
		c0.328-0.357,0.763-0.828,0.763-1.484c0-0.674-0.504-1.348-1.482-1.348c-0.832,0-1.436,0.553-1.472,1.419h0.842
		c0.013-0.363,0.239-0.706,0.67-0.706c0.352,0,0.623,0.261,0.623,0.642c0,0.248-0.133,0.508-0.245,0.682
		c-0.153,0.228-0.643,0.795-0.72,0.885L32.942,27.583z"/>
	<path class="st0" d="M30.923,24.923v1.066h-0.345c-0.143,0-0.328-0.027-0.451-0.125c-0.093-0.076-0.166-0.201-0.166-0.401
		c0-0.166,0.06-0.3,0.139-0.384c0.143-0.147,0.351-0.157,0.504-0.157H30.923z M29.51,27.583h0.395l0.842-1.3h0.176v1.3h0.325v-2.97
		h-0.69c-0.176,0-0.501,0.009-0.729,0.267c-0.123,0.134-0.205,0.325-0.205,0.593c0,0.201,0.043,0.431,0.259,0.606
		c0.159,0.128,0.361,0.172,0.494,0.186L29.51,27.583z M27.1,24.613v1.772c0,0.303,0.003,0.624-0.169,0.798
		c-0.056,0.058-0.156,0.116-0.285,0.116c-0.063,0-0.119-0.014-0.166-0.027v0.311c0.089,0.022,0.156,0.027,0.179,0.027
		c0.192,0,0.375-0.063,0.501-0.178c0.279-0.253,0.265-0.645,0.265-0.912v-1.597h1.141v2.66h0.325v-2.97H27.1z M25.986,24.613h-1.529
		v2.97h1.529v-0.311h-1.2v-1.155h1.167v-0.31h-1.167v-0.884h1.2V24.613z M22.647,24.923h0.242c0.212,0,0.65,0.046,0.65,0.519
		c0,0.343-0.235,0.538-0.623,0.538h-0.269V24.923z M22.318,24.613v2.97h0.328v-1.292h0.285c0.673,0,0.932-0.414,0.932-0.831
		c0-0.189-0.053-0.452-0.269-0.639c-0.199-0.173-0.448-0.208-0.743-0.208H22.318z M19.304,24.613v2.97h0.325v-2.66h1.512v2.66h0.325
		v-2.97H19.304z M16.904,26.434l0.504-1.19l0.494,1.19H16.904z M18.376,27.583h0.362l-1.323-3.113l-1.353,3.113h0.361l0.355-0.838
		h1.253L18.376,27.583z M13.611,27.334c-0.411,0-0.69-0.311-0.69-0.707c0-0.389,0.282-0.687,0.683-0.687
		c0.404,0,0.693,0.29,0.693,0.687C14.298,27.027,14.016,27.334,13.611,27.334 M13.84,24.542l-1.001,1.403
		c-0.222,0.312-0.242,0.569-0.242,0.682c0,0.467,0.325,1.01,1.018,1.01c0.587,0,1.011-0.427,1.011-1.019
		c0-0.554-0.388-0.98-0.955-0.98c-0.093,0-0.176,0.014-0.259,0.04l0.677-0.949L13.84,24.542z M9.917,26.215h1.943v-0.284H9.917
		V26.215z M9.068,24.613h-1.17L7.47,26.047c0.265-0.187,0.464-0.206,0.57-0.206c0.418,0,0.723,0.303,0.723,0.732
		c0,0.418-0.308,0.761-0.723,0.761c-0.202,0-0.355-0.076-0.477-0.177c-0.09-0.072-0.149-0.143-0.199-0.242l-0.259,0.188
		c0.069,0.12,0.162,0.222,0.255,0.302c0.199,0.165,0.421,0.232,0.656,0.232c0.58,0,1.074-0.405,1.074-1.069
		c0-0.58-0.381-1.029-0.971-1.029c-0.07,0-0.129,0.004-0.186,0.018l0.189-0.642h0.945V24.613z"/>
	<path class="st0" d="M78.753,39.078h0.421c0.235,0,0.504,0.02,0.686,0.198c0.113,0.113,0.179,0.284,0.179,0.464
		c0,0.197-0.086,0.384-0.219,0.489c-0.169,0.14-0.471,0.173-0.663,0.173h-0.404V39.078z M78.753,37.258h0.229
		c0.192,0,0.381,0.019,0.53,0.165c0.139,0.133,0.159,0.292,0.159,0.424c0,0.152-0.02,0.358-0.172,0.503
		c-0.156,0.152-0.378,0.171-0.544,0.171h-0.202V37.258z M78.083,36.623v4.414h1.094c0.335,0,0.882-0.058,1.23-0.429
		c0.209-0.225,0.289-0.477,0.289-0.794c0-0.272-0.053-0.577-0.289-0.829c-0.219-0.224-0.487-0.297-0.567-0.316
		c0.099-0.047,0.232-0.133,0.328-0.304c0.106-0.172,0.133-0.351,0.133-0.523c0-0.365-0.113-0.648-0.348-0.873
		c-0.289-0.271-0.643-0.345-1.207-0.345H78.083z M75.235,39.038h0.421c0.706,0,0.865,0.378,0.865,0.696
		c0,0.669-0.703,0.669-0.879,0.669h-0.408V39.038z M74.565,41.037h1.111c0.269,0,0.643-0.027,0.958-0.237
		c0.365-0.244,0.544-0.668,0.544-1.073c0-0.403-0.166-0.754-0.415-0.972c-0.335-0.298-0.779-0.351-1.094-0.351h-0.434v-1.145h1.522
		v-0.636h-2.192V41.037z M70.181,36.623v4.414h0.666v-3.778h1.877v3.778h0.67v-4.414H70.181z M66.736,41.037h0.666v-4.599
		l-2.951,3.17v-2.985h-0.666v4.612l2.951-3.17V41.037z"/>
	<path class="st0" d="M78.623,35.374l0.461-2.667l1.257,2.872l1.273-2.865l0.448,2.66h0.68l-0.826-4.745l-1.532,3.427l-1.525-3.427
		l-0.918,4.745H78.623z M74.22,30.96l1.552,3.163l-0.564,1.25h0.696l1.973-4.414h-0.696l-1.021,2.356l-1.127-2.356H74.22z
		 M73.922,31.595V30.96h-2.676v0.635h1.001v3.779h0.67v-3.779H73.922z M70.022,35.374h0.67v-4.599l-2.951,3.169V30.96h-0.67v4.613
		l2.951-3.171V35.374z M64.452,33.375h0.421c0.71,0,0.865,0.377,0.865,0.695c0,0.669-0.703,0.669-0.879,0.669h-0.408V33.375z
		 M63.785,35.374h1.107c0.269,0,0.643-0.027,0.958-0.238c0.365-0.244,0.544-0.668,0.544-1.072c0-0.403-0.166-0.755-0.411-0.972
		c-0.335-0.299-0.783-0.35-1.097-0.35h-0.434v-1.146h1.522V30.96h-2.188V35.374z"/>
	<path class="st0" d="M77.41,24.555c0.577,0,1.078,0.239,1.389,0.543c0.285,0.288,0.55,0.774,0.55,1.433
		c0,0.735-0.305,1.184-0.55,1.424c-0.302,0.304-0.756,0.544-1.399,0.544c-0.494,0-0.948-0.134-1.353-0.524
		c-0.388-0.383-0.58-0.85-0.58-1.433c0-0.707,0.285-1.175,0.56-1.443C76.365,24.756,76.859,24.555,77.41,24.555 M77.42,23.201
		c-1.26,0-2.046,0.505-2.473,0.934c-0.564,0.572-0.972,1.499-0.972,2.415c0,0.936,0.378,1.795,0.985,2.367
		c0.471,0.459,1.276,0.936,2.46,0.936c1.058,0,1.853-0.362,2.44-0.936c0.68-0.667,0.981-1.536,0.981-2.386
		c0-0.983-0.388-1.824-0.981-2.404C79.227,23.506,78.401,23.201,77.42,23.201 M70.543,24.488h0.342c0.189,0,0.57,0.019,0.805,0.201
		c0.123,0.095,0.292,0.287,0.292,0.649c0,0.315-0.129,0.517-0.235,0.622c-0.245,0.248-0.607,0.276-0.872,0.276h-0.332V24.488z
		 M69.087,23.344v6.365h1.456v-2.51l1.704,2.51h1.777l-1.937-2.606c0.348-0.085,0.66-0.276,0.879-0.486
		c0.404-0.401,0.491-0.897,0.491-1.298c0-0.708-0.282-1.164-0.547-1.423c-0.302-0.285-0.806-0.553-1.608-0.553H69.087z
		 M65.254,24.545h0.494c0.282,0,0.597,0.029,0.812,0.239c0.143,0.134,0.239,0.354,0.239,0.621c0,0.276-0.106,0.498-0.239,0.63
		c-0.236,0.229-0.587,0.239-0.786,0.239h-0.521V24.545z M63.798,23.344v6.365h1.456v-2.234h0.889c0.448,0,1.111-0.048,1.611-0.562
		c0.236-0.248,0.537-0.697,0.537-1.499c0-0.439-0.076-1.07-0.613-1.546c-0.501-0.448-1.108-0.524-1.655-0.524H63.798z"/>
</g>
</svg>
