<?xml version="1.0" encoding="utf-8"?>
<!-- Generator: Adobe Illustrator 22.0.0, SVG Export Plug-In . SVG Version: 6.00 Build 0)  -->
<svg version="1.1" id="Слой_1" xmlns="http://www.w3.org/2000/svg" xmlns:xlink="http://www.w3.org/1999/xlink" x="0px" y="0px"
	 viewBox="0 0 130 100" style="enable-background:new 0 0 130 100;" xml:space="preserve">
<style type="text/css">
	.st0{fill:#F1CD30;}
	.st1{fill:#222220;}
	.st2{fill:#716E6E;}
</style>
<g>
	<path class="st0" d="M29.135,61.446h-2.849l-0.008-17.142l2.849-0.002L29.135,61.446z M29.664,61.446l2.849-0.002l-0.008-14.212
		l-2.849,0.002L29.664,61.446z M25.757,61.446l-2.849,0.003L22.9,47.236h2.857V61.446z"/>
	<path class="st1" d="M52,57.02c0-0.397-0.084-0.691-0.252-0.872c-0.159-0.183-0.529-0.275-1.101-0.275l-1.218,0.002
		c-0.529,0-0.883,0.101-1.059,0.298c-0.177,0.2-0.26,0.483-0.26,0.849v1.647c0,0.37,0.083,0.649,0.26,0.851
		c0.185,0.197,0.538,0.298,1.068,0.298h1.209c0.572,0,0.933-0.092,1.092-0.275c0.16-0.185,0.244-0.469,0.261-0.861V57.02z
		 M63.151,60.921c-0.353,0.359-1.017,0.537-1.984,0.537l-3.176,0.002c-0.958,0-1.622-0.17-2-0.519
		c-0.369-0.345-0.554-0.866-0.554-1.565v-3.071c0-0.695,0.185-1.216,0.554-1.565c0.378-0.344,1.042-0.516,2-0.519h3.176
		c0.967-0.002,1.622,0.177,1.975,0.534c0.361,0.359,0.538,0.876,0.538,1.548v0.71l-2.168,0.002c0-0.397-0.084-0.691-0.253-0.872
		c-0.159-0.183-0.53-0.275-1.101-0.275l-1.218,0.002c-0.529,0-0.883,0.101-1.058,0.298c-0.177,0.2-0.27,0.483-0.27,0.849
		l0.009,1.647c0,0.37,0.084,0.649,0.269,0.851c0.177,0.197,0.521,0.298,1.058,0.298h1.21c0.571,0,0.942-0.093,1.109-0.275
		c0.16-0.185,0.244-0.475,0.244-0.876l2.168-0.002v0.715C63.68,60.049,63.504,60.564,63.151,60.921z M67.117,61.457h-2.151
		l-0.017-2.084v-3.069l0.008-2.084h2.16v2.769l3.899-0.003v-2.769l2.176-0.002v2.084l0.008,3.069v2.086h-2.185v-2.821l-3.899,0.002
		V61.457z M77.252,58.631h-0.614c0,0.382,0.101,0.674,0.277,0.876c0.177,0.198,0.529,0.298,1.059,0.298h1.219l3.521-0.002v1.647
		h-2.522l-3.167,0.003c-0.966,0-1.63-0.171-2.001-0.52c-0.377-0.344-0.563-0.867-0.563-1.565v-3.069
		c0-0.699,0.186-1.219,0.555-1.567c0.379-0.346,1.043-0.519,2-0.519l3.176-0.002h2.522v1.649l-3.521,0.002h-1.219
		c-0.53,0-0.882,0.101-1.059,0.298c-0.176,0.2-0.277,0.471-0.285,0.824h0.622l5.462-0.002v1.647L77.252,58.631z M99.394,55.852
		l-2.975,0.002v-1.649l2.505-0.002h3.168l2.563-0.003v1.649l-3.101,0.002v5.59h-2.16V55.852z M86.067,57.841
		c-0.008-0.903,0.748-0.804,0.748-0.804l2.192-0.002v1.532h-2.21C86.797,58.566,86.067,58.595,86.067,57.841z M93.36,58.564h-2.21
		v-1.529h2.193c0,0,0.748-0.101,0.748,0.802C94.092,58.591,93.36,58.564,93.36,58.564z M94.503,55.503l-3.352,0.002v-1.324h-2.135
		v1.324l-3.437,0.002c0,0-1.95,0.059-1.95,2.271c0,2.217,2.009,2.229,2.009,2.229l3.377-0.002v1.432h2.135v-1.432l3.303-0.002
		c0,0,2.008-0.014,2.008-2.228C96.461,55.562,94.503,55.503,94.503,55.503z M41.773,57.325l-3.193,0.002v-1.447h3.193
		c0.404-0.002,0.723,0.321,0.723,0.723C42.496,57.001,42.177,57.325,41.773,57.325z M44.126,54.763
		c-0.361-0.357-1.026-0.535-1.992-0.535l-5.714,0.004v7.237h2.16v-2.498h3.554c0.975,0,1.631-0.181,1.992-0.535
		c0.352-0.36,0.529-0.876,0.529-1.548v-0.576C44.656,55.639,44.479,55.123,44.126,54.763z M111.705,59.066
		c0,0.399-0.328,0.723-0.724,0.723l-3.201,0.002v-1.45h3.201C111.377,58.341,111.705,58.665,111.705,59.066z M113.856,59.354v-0.578
		c0-0.67-0.177-1.187-0.53-1.548c-0.361-0.357-1.017-0.534-1.992-0.532l-3.555,0.002v-2.5h-2.159v7.242l5.723-0.003
		c0.966,0,1.63-0.178,1.983-0.538C113.679,60.541,113.856,60.026,113.856,59.354z M18.992,47.797l-2.849-2.531v-7.284l2.849-0.002
		V47.797z M22.379,50.965l-2.857-2.796V34.758h2.849L22.379,50.965z M25.757,46.791L22.9,46.793l-0.008-15.201l2.857-0.002
		L25.757,46.791z M29.126,43.678h-2.849l-0.009-15.256l2.849-0.002L29.126,43.678z M36.412,47.791l2.849-2.536v-7.284l-2.849,0.002
		V47.791z M29.656,46.791l2.849-0.002l-0.008-15.201l-2.849,0.002L29.656,46.791z M33.034,50.961l2.857-2.8l-0.008-13.409
		l-2.848,0.002V50.961z M53.638,60.925c-0.353,0.36-1.017,0.538-1.983,0.538l-3.177,0.002c-0.958,0-1.63-0.17-2-0.519
		c-0.37-0.345-0.563-0.866-0.563-1.565v-3.069c0-0.699,0.193-1.218,0.563-1.567c0.37-0.345,1.033-0.519,2-0.519l3.168-0.002
		c0.966,0,1.63,0.178,1.992,0.535c0.353,0.359,0.529,0.876,0.529,1.548v3.071C54.167,60.053,53.991,60.566,53.638,60.925z"/>
	<path class="st2" d="M41.353,68.614H38.58l0.008,1.311h2.798c0.42,0,0.681-0.332,0.706-0.657
		C42.11,68.94,41.9,68.614,41.353,68.614 M51.714,64.312l-4.026,5.263v-0.091v-3.077v-2.092l-2.193,0.001l0.008,7.261h0.647h1.537
		h0.546l3.934-5.132v5.132l2.185-0.002v-2.095v-3.077v-2.09h-0.554h-1.63H51.714z M61.243,64.307l-3.176,0.003l-2.513,0.002v1.656
		l2.992-0.002v5.608h2.16l-0.008-5.608l3.11-0.002v-1.656H61.243z M70.647,64.303l-1.924,3.874h-0.025l-1.924-3.872h-2.336
		l2.958,5.151c0.202,0.317,0.059,0.882-0.488,0.878l-0.563-0.002v1.236h1.228c0.688,0,1.117-0.179,1.319-0.536l4.126-6.729H70.647z
		 M75.638,71.564l-2.034,0.002v-7.262l3.689-0.002l1.714,4.561h0.076l1.849-4.563l3.571-0.002v7.264h-2.177v-5.569h-0.075
		l-2.285,5.572h-1.942l-2.319-5.568h-0.067V71.564z M43.731,71.04c-0.353,0.357-1.017,0.538-1.984,0.54H36.42v-5.609V64.32
		l2.16-0.002l5.269-0.003v1.653l-5.269,0.002v0.99l3.159-0.003c0.976,0,1.63,0.179,1.992,0.536c0.361,0.359,0.529,0.881,0.529,1.555
		l0.008,0.437C44.269,70.16,44.093,70.679,43.731,71.04z"/>
</g>
</svg>
