<?xml version="1.0" encoding="utf-8"?>
<!-- Generator: Adobe Illustrator 22.0.0, SVG Export Plug-In . SVG Version: 6.00 Build 0)  -->
<svg version="1.1" id="Слой_1" xmlns="http://www.w3.org/2000/svg" xmlns:xlink="http://www.w3.org/1999/xlink" x="0px" y="0px"
	 viewBox="0 0 130 100" style="enable-background:new 0 0 130 100;" xml:space="preserve">
<style type="text/css">
	.st0{fill:#4F8485;}
</style>
<g>
	<path class="st0" d="M35.427,48.817c0,0,0.445-5.033,0.487-5.527c0.067-0.792-0.571-2.233-2.109-2.233
		c-0.471,0-4.537,0.002-4.537,0.002v0.002l-2.731,0.002H26.1c0,0-4.176,0-5,0c-1.538,0.002-2.285,1.047-2.378,2.044
		c-0.059,0.59-1.109,12.763-1.168,13.464c-0.11,1.126,0.663,2.405,2.083,2.403c0.656,0,5.336-0.003,5.336-0.003l0,0l2.228-0.002
		v0.002c0,0,4.184-0.002,5.067-0.002c1.68-0.002,2.328-0.888,2.47-2.259c0.084-0.817,0.496-5.773,0.496-5.773l-7.63,0.002
		l-0.335,3.83l-1.933,0.002l0.832-9.51l1.933-0.002l-0.303,3.561L35.427,48.817z"/>
	<path class="st0" d="M47.217,42.589c-0.278,0.783-2.496,7.743-2.496,7.743l0.983-9.277l-7.63,0.002l-1.596,17.911
		c0,0,4.033-0.002,5.755-0.002c1.446-0.002,1.941-0.821,2.177-1.479c0.293-0.784,2.403-6.637,2.403-6.637l-0.773,8.113l7.638-0.004
		l1.564-17.911c0,0-5.471,0.002-5.992,0.004C47.931,41.053,47.41,42.032,47.217,42.589z"/>
	<path class="st0" d="M85.896,41.036l-0.714,8.168l-1.932,0.002l0.714-8.168l-7.638,0.002c0,0-0.731,8.649-0.806,9.483
		c-0.092,0.998,0.471,2.409,2.168,2.409c0.798,0,7.176-0.002,7.176-0.002l-0.16,1.817l-9.554,0.004l-0.362,4.2l9.849-0.004h0.437
		c0,0,3.999-0.002,4.907-0.002c1.034,0,2.025-0.674,2.159-2.109c0.085-0.923,1.395-15.802,1.395-15.802L85.896,41.036z"/>
	<path class="st0" d="M105.829,41.028L105.829,41.028l-2.739,0.002l0,0l-7.629,0.002l-1.564,17.911l7.639-0.004l0.479-5.542h2.739
		h-0.512c4.807-0.002,4.496-0.002,5.193-0.002c1.311,0,2.185-0.671,2.328-2.206c0.05-0.597,0.655-7.384,0.689-7.985
		c0.092-1.326-0.958-2.179-2.27-2.179C109.661,41.025,105.829,41.028,105.829,41.028z M102.342,49.672l0.387-4.441l1.908-0.002
		l-0.387,4.443H102.342z"/>
	<path class="st0" d="M64.3,47.063l0.16-1.817l9.572-0.004l0.36-4.202l-9.562,0.004h-0.437l-7.201,0.004l-1.563,17.909h2.873l0,0
		c0,0,11.445-0.004,12.37-0.004c0.966-0.002,2.016-0.576,2.151-2.074c0.109-1.124,0.572-6.449,0.656-7.416
		c0.118-1.292-0.706-2.406-2.311-2.406C70.578,47.059,64.3,47.063,64.3,47.063z M65.543,55.231h-1.948l0.386-4.443l1.95-0.002
		L65.543,55.231z"/>
</g>
</svg>
